{"title":"The Beatles:Help!(1965)MPEG-4[DaScubaDude]","uid":13451643,"size":922101419,"categoryP":"video","categoryS":"movies","magnet":"?xt=urn:btih:ea6b97266e304c11df76d0513ce30442ca689c21&amp;dn=The+Beatles%3AHelp%21%281965%29MPEG-4%5BDaScubaDude%5D&amp;tr=udp%3A%2F%2Ftracker.leechers-paradise.org%3A6969&amp;tr=udp%3A%2F%2Fzer0day.ch%3A1337&amp;tr=udp%3A%2F%2Fopen.demonii.com%3A1337&amp;tr=udp%3A%2F%2Ftracker.coppersurfer.tk%3A6969&amp;tr=udp%3A%2F%2Fexodus.desync.com%3A6969","seeders":13,"leechers":3,"uploader":"dascuba","files":1,"time":1454806151,"description":"Help! (1965)\r\nApproved | 1h 32min | Adventure, Comedy, Musical | 25 August 1965 (USA)\r\n Help! Poster\r\nRingo finds himself the human sacrifice target of a cult and the band must try to protect him from it.\r\nDirector: Richard Lester\r\nWriters: Marc Behm (screenplay), Charles Wood (screenplay) | 1 more credit »\r\nStars: John Lennon, Paul McCartney, George Harrison \r\n\r\nGeneral\r\nComplete name                            :Help!HELP_D1_Title1.mp4\r\nFormat                                   : MPEG-4\r\nFormat profile                           : Base Media\r\nCodec ID                                 : isom\r\nFile size                                : 879 MiB\r\nDuration                                 : 1h 32mn\r\nOverall bit rate                         : 1 335 Kbps\r\nMovie name                               : HELP_D1\r\nGenre                                    : Comedy\r\nWriting application                      : Lavf54.6.100\r\n\r\nVideo\r\nID                                       : 1\r\nFormat                                   : AVC\r\nFormat/Info                              : Advanced Video Codec\r\nFormat profile                           :   \r\nFormat settings, CABAC                   : No\r\nFormat settings, ReFrames                : 6 frames\r\nCodec ID                                 : avc1\r\nCodec ID/Info                            : Advanced Video Coding\r\nDuration                                 : 1h 32mn\r\nBit rate                                 : 1 200 Kbps\r\nWidth                                    : 720 pixels\r\nHeight                                   : 404 pixels\r\nDisplay aspect ratio                     : 16:9\r\nFrame rate mode                          : Constant\r\nFrame rate                               : 29.970 fps\r\nColor space                              : YUV\r\nChroma subsampling                       : 4:2:0\r\nBit depth                                : 8 bits\r\nScan type                                : Progressive\r\nBits/(Pixel*Frame)                       : 0.138\r\nStream size                              : 791 MiB (90%)\r\n\r\nAudio\r\nID                                       : 2\r\nFormat                                   : AAC\r\nFormat/Info                              : Advanced Audio Codec\r\nFormat profile                           : LC\r\nCodec ID                                 : 40\r\nDuration                                 : 1h 32mn\r\nBit rate mode                            : Constant\r\nBit rate                                 : 128 Kbps\r\nChannel(s)                               : 2 channels\r\nChannel positions                        : Front: L R\r\nSampling rate                            : 44.1 KHz\r\nCompression mode                         : Lossy\r\nStream size                              : 84.4 MiB (10%)","torrent":{"xt":"urn:btih:ea6b97266e304c11df76d0513ce30442ca689c21","amp;dn":"The+Beatles%3AHelp%21%281965%29MPEG-4%5BDaScubaDude%5D","amp;tr":["udp%3A%2F%2Ftracker.leechers-paradise.org%3A6969","udp%3A%2F%2Fzer0day.ch%3A1337","udp%3A%2F%2Fopen.demonii.com%3A1337","udp%3A%2F%2Ftracker.coppersurfer.tk%3A6969","udp%3A%2F%2Fexodus.desync.com%3A6969"],"infoHash":"ea6b97266e304c11df76d0513ce30442ca689c21","infoHashBuffer":{"type":"Buffer","data":[234,107,151,38,110,48,76,17,223,118,208,81,60,227,4,66,202,104,156,33]},"announce":[],"urlList":[]}}